# xmcd CD database file
#
# Track frame offsets:
#	150
#	21754
#	85527
#	109476
#	133837
#	168738
#	205797
#	228555
#
# Disc length: 3686 seconds
#
# Revision: 0
# Processed by: cddbd v1.5.2PL0 Copyright (c) Steve Scherf et al.
# Submitted via: CDex 1.70beta3
#
DISCID=690e6408
DTITLE=Makaya Ntshoko - Makaya and The Tsotsis (Enja 2042)
DYEAR=1974
DGENRE=Jazz
TTITLE0=Ode to Tilman
TTITLE1=Tetralogue
TTITLE2=Bridges
TTITLE3=Neged
TTITLE4=Suspension
TTITLE5=Santdec - (previously unreleased)
TTITLE6=Heboisma - (previously unreleased)
TTITLE7=Makaya's Song - (previously unreleased)
EXTD=YEAR: 1974
EXTT0=
EXTT1=
EXTT2=
EXTT3=
EXTT4=
EXTT5=
EXTT6=
EXTT7=
PLAYORDER=
